<svg xmlns="http://www.w3.org/2000/svg" xmlns:xlink="http://www.w3.org/1999/xlink" fill="none" version="1.1" width="16" height="16" viewBox="0 0 16 16"><defs><clipPath id="master_svg0_567_89422"><rect x="0" y="0" width="16" height="16" rx="0"/></clipPath></defs><g clip-path="url(#master_svg0_567_89422)"><g><path d="" fill="#FFFFFF" fill-opacity="0"/></g><g><path d="M13.31180474243164,10.125C13.490404742431641,10.125,13.65550474243164,10.2203,13.74480474243164,10.375L14.862404742431641,12.3107C14.951704742431641,12.4654,14.951704742431641,12.656,14.862404742431641,12.8107L13.74480474243164,14.7464C13.65550474243164,14.9011,13.490404742431641,14.9964,13.31180474243164,14.9964L11.076644742431641,14.9964C10.89800474243164,14.9964,10.732944742431641,14.9011,10.64362474243164,14.7464L9.52606474243164,12.8107C9.43674474243164,12.656,9.43674474243164,12.4654,9.52606474243164,12.3107L10.64362474243164,10.375C10.732944742431641,10.2203,10.89800474243164,10.125,11.076644742431641,10.125L13.31180474243164,10.125ZM8.00000474243164,8.01562C9.32056474243164,8.01562,10.54522474243164,8.4262,11.553284742431641,9.12667L10.494534742431641,9.1268C10.31537474243164,9.1268,10.14990474243164,9.22266,10.060784742431641,9.37808L8.377144742431641,12.3141C8.28890474243164,12.468,8.28880474243164,12.6571,8.37687474243164,12.8111L9.19992474243164,14.25L2.2865167424316404,14.25L2.2789237424316404,14.2499C2.0065957424316405,14.2455,1.7872047424316406,14.0234,1.7872047424316406,13.75C1.7872047424316406,13.7267,1.7887828024316406,13.7038,1.7918609624316406,13.6814L1.7912828024316407,13.6807C2.0788297424316404,10.50434,4.74878474243164,8.01562,8.00000474243164,8.01562ZM12.19340474243164,11.625C11.67567474243164,11.625,11.255934742431641,12.0447,11.255934742431641,12.5625C11.255934742431641,13.0803,11.67567474243164,13.5,12.19340474243164,13.5C12.71120474243164,13.5,13.13090474243164,13.0803,13.13090474243164,12.5625C13.13090474243164,12.0447,12.71120474243164,11.625,12.19340474243164,11.625ZM8.007814742431641,1C9.945124742431641,1,11.51562474243164,2.5705,11.51562474243164,4.50781C11.51562474243164,6.44513,9.945124742431641,8.01562,8.007814742431641,8.01562C6.07050474243164,8.01562,4.50000474243164,6.44513,4.50000474243164,4.50781C4.50000474243164,2.5705,6.07050474243164,1,8.007814742431641,1Z" fill="#666666" fill-opacity="1"/></g></g></svg>