<svg xmlns="http://www.w3.org/2000/svg" xmlns:xlink="http://www.w3.org/1999/xlink" fill="none" version="1.1" width="16" height="16" viewBox="0 0 16 16"><defs><clipPath id="master_svg0_567_71219"><rect x="0" y="0" width="16" height="16" rx="0"/></clipPath></defs><g clip-path="url(#master_svg0_567_71219)"><g><path d="M14.354225,13.79685L1.630109,13.79685C1.290281,13.79685,1.015625,13.55262,1.015625,13.25042L1.015625,4.327703C1.015625,4.0255,1.290281,3.78125,1.630109,3.78125L14.354225,3.78125C14.694125,3.78125,14.968725,4.0255,14.968725,4.327703L14.968725,13.25042C14.968725,13.55125,14.692525,13.79685,14.354225,13.79685Z" fill="#FFE9B4" fill-opacity="1"/></g><g><path d="M8.000005,6.421875L1.015625,6.421875L1.015625,3.287031C1.015625,2.946828,1.290594,2.671875,1.630797,2.671875L6.410795,2.671875C6.682675,2.671875,6.921895,2.848969,6.999565,3.109937L8.000005,6.421875Z" fill="#FFB02C" fill-opacity="1"/></g><g><path d="M14.354225,13.79688L1.630109,13.79688C1.290281,13.79688,1.015625,13.52219,1.015625,13.18231L1.015625,5.239562C1.015625,4.899687,1.290281,4.625,1.630109,4.625L14.354225,4.625C14.694125,4.625,14.968725,4.899687,14.968725,5.239562L14.968725,13.18231C14.968725,13.52063,14.692525,13.79688,14.354225,13.79688Z" fill="#FFCA28" fill-opacity="1"/></g></g></svg>